<?xml version="1.0" standalone="no"?>
<!DOCTYPE svg PUBLIC "-//W3C//DTD SVG 20010904//EN"
 "http://www.w3.org/TR/2001/REC-SVG-20010904/DTD/svg10.dtd">
<svg version="1.0" xmlns="http://www.w3.org/2000/svg"
 width="512.000000pt" height="512.000000pt" viewBox="0 0 512.000000 512.000000"
 preserveAspectRatio="xMidYMid meet">

<g transform="translate(0.000000,512.000000) scale(0.100000,-0.100000)"
fill="#000000" stroke="none">
<path d="M2672 5083 c-56 -28 -76 -87 -47 -143 20 -39 63 -60 121 -60 72 0
246 -28 384 -61 310 -76 630 -236 893 -446 100 -80 102 -82 96 -87 -3 -3 -58
-1 -123 4 -138 10 -173 2 -206 -52 -27 -43 -20 -92 19 -132 33 -32 16 -30 400
-56 214 -15 234 -15 258 1 29 18 53 62 53 98 0 16 -27 162 -60 323 -65 314
-71 330 -134 347 -67 17 -136 -30 -136 -93 0 -35 36 -221 46 -237 12 -21 -10
-6 -78 52 -169 141 -445 301 -682 394 -199 78 -473 140 -701 159 -54 5 -78 2
-103 -11z"/>
<path d="M2183 5080 c-12 -5 -50 -14 -85 -20 -113 -20 -296 -69 -395 -105
-141 -52 -422 -193 -538 -270 -628 -420 -1024 -1050 -1131 -1802 -25 -176 -23
-495 5 -682 52 -346 168 -675 335 -948 65 -107 76 -119 114 -133 37 -13 45
-12 77 3 36 17 65 64 65 104 0 10 -21 50 -46 88 -61 94 -185 349 -224 459 -42
123 -86 294 -105 417 -22 140 -31 457 -16 601 46 443 225 877 504 1223 92 113
307 320 425 408 257 191 541 326 842 399 95 23 138 28 178 24 66 -8 115 11
142 56 11 18 20 47 20 63 0 81 -92 145 -167 115z"/>
<path d="M4643 3865 c-40 -17 -75 -71 -69 -105 3 -14 24 -59 47 -100 303 -533
363 -1251 156 -1855 -74 -215 -185 -428 -331 -634 -27 -38 -46 -76 -46 -91 0
-43 40 -94 83 -104 67 -17 94 5 202 168 201 303 330 630 397 1008 19 107 22
159 22 403 1 244 -2 296 -21 405 -28 157 -74 337 -119 460 -52 140 -188 414
-216 432 -37 24 -70 28 -105 13z"/>
<path d="M956 2998 c-87 -19 -146 -83 -154 -168 -15 -155 141 -266 283 -201
63 28 70 43 36 75 -26 25 -29 26 -57 11 -44 -23 -88 -19 -123 11 -61 51 -48
150 24 180 44 18 63 18 100 -2 29 -15 31 -14 53 11 29 34 25 46 -19 66 -45 22
-95 28 -143 17z"/>
<path d="M1279 2966 l-30 -41 32 -3 c25 -3 39 4 70 34 22 21 39 41 39 44 0 4
-18 7 -40 7 -36 0 -44 -5 -71 -41z"/>
<path d="M2975 2987 c-3 -12 -4 -98 -3 -192 l3 -170 43 -3 42 -3 -2 192 -3
193 -37 2 c-32 2 -39 -1 -43 -19z"/>
<path d="M2348 2994 c-5 -4 -8 -90 -8 -191 l0 -183 45 0 44 0 3 68 3 67 65 5
c81 6 115 27 131 80 10 32 9 46 -2 76 -24 62 -53 77 -171 82 -57 2 -106 1
-110 -4z m173 -84 c21 -12 25 -40 7 -58 -7 -7 -31 -12 -55 -12 -42 0 -43 1
-43 33 0 19 3 37 7 40 10 11 62 8 84 -3z"/>
<path d="M1235 2881 c-58 -35 -70 -57 -70 -128 0 -62 2 -66 37 -98 56 -52 147
-59 200 -15 l23 19 -21 21 c-20 20 -25 21 -56 10 -28 -10 -40 -10 -63 1 -58
29 -43 39 59 39 l96 0 0 33 c0 104 -118 172 -205 118z m109 -67 c9 -24 4 -26
-50 -22 -46 3 -47 4 -30 21 22 22 72 23 80 1z"/>
<path d="M1501 2874 c-24 -19 -31 -34 -31 -60 0 -44 27 -70 85 -85 52 -13 61
-22 40 -39 -13 -10 -24 -10 -58 4 l-42 17 -24 -28 c-22 -25 -22 -27 -5 -40 22
-16 80 -33 112 -33 37 0 88 28 101 56 27 60 4 97 -77 125 -56 19 -67 39 -20
39 18 0 40 -4 48 -10 10 -6 19 -2 32 18 24 36 23 38 -13 51 -57 20 -114 14
-148 -15z"/>
<path d="M1763 2886 c-36 -17 -38 -19 -23 -46 9 -16 18 -18 60 -13 33 4 55 2
65 -7 30 -25 17 -35 -45 -32 -52 3 -62 1 -85 -22 -42 -42 -34 -116 16 -141 36
-19 66 -19 104 1 19 10 31 11 33 5 2 -6 19 -11 38 -11 l34 0 0 109 c0 101 -2
112 -23 137 -20 23 -33 28 -83 31 -37 2 -71 -2 -91 -11z m117 -165 c0 -42 -54
-67 -79 -37 -21 25 4 56 44 56 28 0 35 -4 35 -19z"/>
<path d="M2017 2894 c-4 -4 -7 -67 -7 -141 l0 -133 45 0 45 0 0 88 c0 96 7
112 51 112 22 0 28 6 33 31 3 17 6 35 6 40 0 14 -44 10 -66 -6 -24 -18 -35
-19 -31 -2 2 13 -64 23 -76 11z"/>
<path d="M2715 2880 c-50 -24 -75 -65 -75 -120 0 -111 108 -178 213 -132 55
24 79 58 84 120 10 115 -111 187 -222 132z m117 -77 c37 -33 9 -113 -40 -113
-33 0 -62 29 -62 62 0 59 60 89 102 51z"/>
<path d="M3163 2889 c-39 -12 -47 -23 -33 -48 9 -17 17 -19 60 -14 33 4 55 2
65 -7 30 -25 17 -35 -45 -32 -52 3 -62 1 -85 -22 -34 -34 -35 -93 -1 -125 33
-31 89 -38 123 -16 18 12 28 14 31 7 2 -7 19 -12 38 -12 l34 0 0 109 c0 101
-2 112 -23 137 -19 22 -33 28 -78 30 -30 2 -68 -1 -86 -7z m107 -173 c0 -13
-7 -29 -14 -36 -21 -16 -60 -9 -64 13 -7 33 6 47 43 47 30 0 35 -3 35 -24z"/>
<path d="M3404 2887 c-2 -7 -3 -69 -2 -138 l3 -124 43 -3 42 -3 0 90 c0 80 2
91 21 105 22 15 48 11 61 -8 4 -6 8 -50 8 -98 l0 -88 40 0 40 0 0 115 c0 110
-1 117 -25 140 -28 29 -75 33 -117 11 -23 -12 -27 -12 -32 0 -7 18 -75 19 -82
1z"/>
<path d="M3772 2880 c-134 -82 -66 -283 90 -266 26 3 59 13 73 22 l26 17 -29
30 c-26 25 -32 28 -52 17 -17 -9 -28 -9 -51 0 -60 25 -45 112 19 118 19 2 39
-2 47 -8 10 -8 18 -4 34 19 27 37 27 38 -9 56 -41 21 -108 19 -148 -5z"/>
<path d="M4041 2882 c-53 -26 -76 -65 -76 -125 0 -65 28 -108 87 -132 142 -56
267 93 184 220 -34 51 -131 70 -195 37z m125 -88 c22 -32 10 -72 -27 -93 -24
-13 -29 -13 -53 2 -57 38 -37 117 29 117 26 0 39 -6 51 -26z"/>
<path d="M1714 2395 c-4 -9 -2 -21 4 -27 16 -16 47 -5 47 17 0 26 -42 34 -51
10z"/>
<path d="M2490 2364 c0 -37 -3 -45 -12 -36 -20 20 -67 14 -93 -13 -31 -30 -33
-82 -5 -118 28 -35 56 -42 85 -23 14 9 25 12 25 6 0 -5 11 -10 25 -10 l26 0
-3 118 c-3 113 -4 117 -25 120 -21 3 -23 -1 -23 -44z m-16 -80 c19 -18 20 -28
6 -55 -19 -34 -70 -18 -70 22 0 18 25 49 40 49 5 0 16 -7 24 -16z"/>
<path d="M3236 2388 c-9 -12 -16 -28 -16 -35 0 -7 -4 -13 -10 -13 -5 0 -10 -9
-10 -20 0 -11 5 -20 10 -20 6 0 10 -28 10 -65 0 -63 1 -65 25 -65 24 0 25 2
25 65 l0 65 35 0 35 0 0 -50 c0 -62 27 -96 68 -85 34 8 36 11 29 30 -4 8 -16
15 -27 15 -17 0 -20 6 -20 45 0 38 3 45 20 45 13 0 20 7 20 20 0 13 -7 20 -20
20 -13 0 -20 7 -20 20 0 15 -7 20 -25 20 -18 0 -25 -5 -25 -20 0 -16 -7 -20
-36 -20 -39 0 -44 23 -6 28 14 2 22 11 22 23 0 29 -64 27 -84 -3z"/>
<path d="M877 2394 c-4 -4 -7 -56 -7 -116 l0 -108 30 0 31 0 -3 113 c-3 104
-4 112 -23 115 -12 2 -24 0 -28 -4z"/>
<path d="M1415 2378 c-14 -21 -14 -23 0 -26 17 -4 55 24 55 40 0 17 -40 7 -55
-14z"/>
<path d="M2863 2390 c-29 -12 -46 -46 -38 -77 4 -18 21 -31 60 -49 30 -13 55
-28 55 -33 0 -17 -33 -22 -68 -10 -33 11 -51 3 -52 -23 0 -15 43 -30 86 -31
55 0 84 23 84 68 0 37 -14 52 -67 70 -21 7 -40 21 -42 31 -3 15 3 16 42 11 36
-5 46 -3 51 10 4 9 3 20 -2 25 -14 14 -84 19 -109 8z"/>
<path d="M960 2255 c0 -84 0 -85 25 -85 24 0 25 3 25 54 0 35 5 58 15 66 26
22 45 -5 45 -66 0 -51 1 -54 25 -54 24 0 25 2 25 68 0 54 -4 72 -18 85 -22 20
-63 22 -80 5 -9 -9 -12 -9 -12 0 0 7 -11 12 -25 12 -25 0 -25 -1 -25 -85z"/>
<path d="M1161 2316 c-26 -27 -28 -82 -5 -115 15 -20 23 -23 65 -19 45 5 47 4
38 -15 -9 -16 -18 -18 -54 -14 -34 5 -44 3 -49 -10 -8 -20 -5 -23 36 -32 91
-20 131 28 126 152 l-3 72 -66 2 c-58 2 -69 -1 -88 -21z m99 -36 c23 -42 -30
-81 -60 -45 -10 12 -10 21 -2 40 14 30 47 33 62 5z"/>
<path d="M1365 2315 c-34 -33 -34 -93 -1 -124 27 -26 80 -31 116 -11 32 17 10
35 -42 35 -24 0 -43 5 -45 13 -4 9 12 12 57 12 l62 0 -7 28 c-17 70 -92 96
-140 47z m83 -32 c2 -9 -7 -13 -27 -13 -30 0 -39 9 -24 24 11 10 46 3 51 -11z"/>
<path d="M1530 2255 c0 -84 0 -85 25 -85 23 0 24 4 27 63 3 54 5 62 23 62 18
0 20 -8 23 -62 3 -59 4 -63 27 -63 24 0 25 2 25 73 0 80 -9 97 -50 97 -14 0
-31 -5 -38 -12 -9 -9 -12 -9 -12 0 0 7 -11 12 -25 12 -25 0 -25 -1 -25 -85z"/>
<path d="M1717 2334 c-4 -4 -7 -43 -7 -86 0 -76 1 -78 24 -78 28 0 34 18 31
105 -1 51 -4 60 -21 63 -11 2 -23 0 -27 -4z"/>
<path d="M1815 2315 c-68 -67 6 -175 97 -143 46 16 33 43 -21 43 -26 0 -46 5
-48 13 -3 9 11 12 51 12 55 0 56 1 56 28 0 65 -87 96 -135 47z m83 -32 c2 -9
-7 -13 -27 -13 -30 0 -39 9 -24 24 11 10 46 3 51 -11z"/>
<path d="M1980 2254 c0 -83 0 -84 25 -84 22 0 24 4 27 58 3 50 6 57 26 60 15
2 22 10 22 26 0 20 -5 23 -50 24 l-50 1 0 -85z"/>
<path d="M2135 2328 c-31 -16 -45 -39 -45 -71 0 -40 17 -67 52 -82 78 -32 152
41 122 120 -14 36 -88 56 -129 33z m69 -47 c21 -24 14 -57 -15 -66 -41 -13
-65 37 -33 69 20 21 27 20 48 -3z"/>
<path d="M2585 2315 c-31 -30 -33 -82 -4 -119 16 -21 29 -26 62 -26 48 0 71
12 65 31 -3 9 -20 14 -48 14 -26 0 -45 5 -47 13 -3 9 11 12 51 12 55 0 56 0
56 29 0 63 -89 93 -135 46z m83 -32 c2 -9 -7 -13 -27 -13 -30 0 -39 9 -24 24
11 10 46 3 51 -11z"/>
<path d="M3035 2315 c-33 -32 -34 -93 -2 -122 31 -28 65 -34 103 -18 68 28 76
118 13 150 -43 23 -86 19 -114 -10z m90 -31 c20 -20 16 -53 -7 -68 -40 -24
-80 44 -42 71 23 17 29 16 49 -3z"/>
<path d="M3440 2338 c0 -2 13 -39 29 -83 26 -74 31 -80 56 -80 23 0 30 7 45
44 l17 45 15 -45 c13 -38 18 -44 42 -44 26 0 30 6 57 79 16 44 29 82 29 84 0
2 -12 2 -27 0 -22 -2 -29 -11 -42 -51 l-17 -48 -18 50 c-15 41 -22 51 -41 51
-19 0 -26 -9 -41 -52 l-17 -53 -17 50 c-14 42 -21 51 -43 53 -15 2 -27 2 -27
0z"/>
<path d="M3761 2331 c-25 -16 -6 -36 34 -36 21 0 40 -4 42 -10 1 -6 -15 -10
-38 -11 -29 0 -46 -6 -55 -19 -31 -42 -6 -88 47 -87 19 0 49 1 68 1 l33 0 -4
72 c-3 55 -8 74 -23 85 -21 16 -82 18 -104 5z m79 -95 c0 -18 -15 -36 -30 -36
-22 0 -34 15 -25 30 6 9 55 15 55 6z"/>
<path d="M3920 2255 c0 -84 0 -85 25 -85 22 0 24 4 27 58 3 50 6 57 26 60 16
3 22 10 22 28 0 26 -18 32 -38 12 -9 -9 -12 -9 -12 0 0 7 -11 12 -25 12 -25 0
-25 -1 -25 -85z"/>
<path d="M4055 2315 c-33 -32 -34 -93 -2 -122 31 -29 65 -34 105 -17 28 11 33
17 23 27 -7 6 -31 12 -53 12 -24 0 -43 5 -45 13 -3 9 11 12 51 12 55 0 56 0
56 29 0 63 -89 93 -135 46z m82 -31 c2 -6 -9 -11 -27 -11 -30 0 -37 7 -23 21
10 10 46 3 50 -10z"/>
<path d="M754 951 c-34 -20 -60 -77 -50 -108 3 -10 28 -140 55 -290 28 -149
56 -281 62 -292 44 -70 161 -56 195 24 12 29 11 46 -6 136 -11 57 -20 110 -20
117 0 9 16 1 43 -18 253 -192 597 -356 910 -436 213 -54 342 -68 617 -68 327
-1 507 25 785 114 204 65 452 182 473 221 25 48 19 99 -14 132 -48 48 -71 45
-222 -26 -159 -75 -237 -105 -382 -146 -444 -127 -940 -115 -1382 33 -246 82
-461 198 -678 365 -25 20 -24 20 92 14 l117 -6 36 36 c29 29 35 42 35 77 0 34
-6 48 -34 76 -19 19 -44 34 -57 34 -13 0 -114 7 -224 15 -272 20 -313 19 -351
-4z"/>
<path d="M4130 829 c-97 -39 -114 -160 -31 -216 86 -58 191 1 191 107 0 34 -6
48 -34 76 -19 19 -43 34 -54 34 -11 0 -26 2 -34 4 -7 3 -24 0 -38 -5z"/>
</g>
</svg>
